<svg width="15" height="13" viewBox="0 0 15 13" fill="none" xmlns="http://www.w3.org/2000/svg">
<path d="M14.5265 6.21671C13.0957 2.89462 10.404 0.833374 7.49986 0.833374C4.5957 0.833374 1.90403 2.89462 0.473198 6.21671C0.434194 6.30608 0.414062 6.40253 0.414062 6.50004C0.414063 6.59755 0.434194 6.69401 0.473198 6.78337C1.90403 10.1055 4.5957 12.1667 7.49986 12.1667C10.404 12.1667 13.0957 10.1055 14.5265 6.78337C14.5655 6.69401 14.5857 6.59755 14.5857 6.50004C14.5857 6.40253 14.5655 6.30608 14.5265 6.21671ZM7.49986 10.75C5.25445 10.75 3.12945 9.12796 1.90403 6.50004C3.12945 3.87212 5.25445 2.25004 7.49986 2.25004C9.74528 2.25004 11.8703 3.87212 13.0957 6.50004C11.8703 9.12796 9.74528 10.75 7.49986 10.75ZM7.49986 3.66671C6.93948 3.66671 6.39169 3.83288 5.92575 4.14421C5.45981 4.45554 5.09665 4.89805 4.88221 5.41577C4.66776 5.9335 4.61165 6.50318 4.72097 7.0528C4.8303 7.60241 5.10015 8.10726 5.49639 8.50351C5.89264 8.89976 6.3975 9.16961 6.94711 9.27893C7.49672 9.38826 8.06641 9.33215 8.58413 9.1177C9.10186 8.90325 9.54436 8.5401 9.85569 8.07416C10.167 7.60822 10.3332 7.06042 10.3332 6.50004C10.3332 5.74859 10.0347 5.02792 9.50333 4.49657C8.97198 3.96522 8.25131 3.66671 7.49986 3.66671ZM7.49986 7.91671C7.21967 7.91671 6.94578 7.83362 6.71281 7.67796C6.47984 7.52229 6.29826 7.30104 6.19103 7.04218C6.08381 6.78331 6.05576 6.49847 6.11042 6.22366C6.16508 5.94886 6.30001 5.69643 6.49813 5.49831C6.69625 5.30018 6.94868 5.16526 7.22349 5.1106C7.49829 5.05593 7.78314 5.08399 8.042 5.19121C8.30086 5.29844 8.52211 5.48001 8.67778 5.71298C8.83344 5.94595 8.91653 6.21985 8.91653 6.50004C8.91653 6.87576 8.76727 7.2361 8.5016 7.50178C8.23592 7.76745 7.87559 7.91671 7.49986 7.91671Z" fill="#636366"/>
</svg>
